<svg width="241" height="42" viewBox="0 0 241 42" fill="none" xmlns="http://www.w3.org/2000/svg">
<path d="M50.36 20.12V28.544L58.388 27.968V31.748L50.36 31.388V38.552L54.68 39.164L54.644 41H42.188L41.972 39.848C42.716 39.392 43.688 38.912 44.888 38.408V19.472L42.224 19.148L42.26 17.312H61.052C61.172 19.4 60.98 21.728 60.476 24.296H57.452L56.84 20.588L50.36 20.12ZM69.6054 38.156C70.7334 38.516 71.6094 38.876 72.2334 39.236L72.0894 41H61.7574L61.6494 39.776C62.3694 39.368 63.2814 38.972 64.3854 38.588V17.78L61.6854 17.492L61.4334 15.764C63.4974 14.972 65.6334 14.552 67.8414 14.504L69.6054 16.088V38.156ZM91.8303 39.272L87.4383 41.576C86.8623 41.552 86.2623 41.3 85.6383 40.82C85.0143 40.316 84.5223 39.704 84.1623 38.984L80.2383 41.468L79.1223 41.54C77.6103 41.54 76.3623 41.096 75.3783 40.208C74.3943 39.32 73.9023 38.252 73.9023 37.004C73.9023 35.276 74.8383 33.908 76.7103 32.9L83.5863 32.72V29.516C83.5863 27.596 83.0223 26.372 81.8943 25.844C80.7903 25.916 79.8903 26.072 79.1943 26.312L78.5463 30.2L75.5223 30.308C74.9943 28.988 74.7303 27.536 74.7303 25.952L74.7663 25.232C76.0863 24.656 77.6703 24.152 79.5183 23.72C81.3663 23.264 82.7703 23.036 83.7303 23.036C84.6183 23.036 85.4823 23.276 86.3223 23.756C87.1863 24.236 87.8823 24.86 88.4103 25.628C88.6743 26.084 88.8183 26.996 88.8423 28.364V37.004C88.8423 37.58 89.1423 37.868 89.7423 37.868L91.5063 37.652L91.8303 39.272ZM79.8783 38.336C80.8383 38.312 82.0743 38.012 83.5863 37.436V34.844L82.6863 34.808C80.3103 34.808 79.1223 35.456 79.1223 36.752C79.1223 37.4 79.3743 37.928 79.8783 38.336ZM110.889 25.484L109.017 26.42C106.497 33.044 104.601 37.868 103.329 40.892C102.489 41.156 101.457 41.288 100.233 41.288C99.4172 41.288 98.6732 41.228 98.0012 41.108L92.8532 26.744L90.6572 25.772V23.9H100.017L100.125 25.484L98.3612 26.384L100.557 33.332L101.061 36.464H101.709C102.429 33.56 103.185 30.224 103.977 26.456L102.141 25.772L102.177 23.9H110.781L110.889 25.484ZM110.445 32.324C110.445 29.612 111.273 27.404 112.929 25.7C114.609 23.996 116.697 23.144 119.193 23.144C121.689 23.144 123.741 24.02 125.349 25.772C126.981 27.5 127.797 29.744 127.797 32.504C127.797 35.288 126.993 37.52 125.385 39.2C123.801 40.88 121.773 41.72 119.301 41.72C116.781 41.72 114.669 40.832 112.965 39.056C111.285 37.28 110.445 35.036 110.445 32.324ZM120.777 38.588C121.905 37.796 122.469 35.912 122.469 32.936C122.469 30.968 122.169 29.36 121.569 28.112C120.993 26.84 120.105 26.204 118.905 26.204C118.185 26.204 117.573 26.372 117.069 26.708C116.205 27.86 115.773 29.708 115.773 32.252C115.773 34.172 116.085 35.744 116.709 36.968C117.333 38.168 118.281 38.768 119.553 38.768C119.985 38.768 120.393 38.708 120.777 38.588ZM150.285 39.272L145.857 41.576C145.257 41.552 144.621 41.252 143.949 40.676C143.277 40.076 142.785 39.38 142.473 38.588C140.337 40.076 138.285 41.072 136.317 41.576C135.573 41.528 134.781 41.276 133.941 40.82C133.125 40.364 132.465 39.764 131.961 39.02C131.625 38.516 131.445 37.4 131.421 35.672V26.528L128.721 26.204L128.469 24.476C130.533 23.684 132.669 23.264 134.877 23.216L136.641 24.8V34.664C136.641 36.752 137.409 37.796 138.945 37.796C139.809 37.796 140.841 37.496 142.041 36.896V26.492L139.773 26.132L139.521 24.404C141.297 23.708 143.289 23.312 145.497 23.216L147.261 24.8V36.896C147.261 37.544 147.561 37.868 148.161 37.868L149.961 37.652L150.285 39.272ZM162.608 23.72C163.184 23.504 163.784 23.396 164.408 23.396C165.656 23.396 166.664 23.756 167.432 24.476C167.312 27.116 166.868 29.384 166.1 31.28H163.364L162.644 27.248C161.324 28.232 160.112 29.396 159.008 30.74V38.012C160.688 38.348 161.984 38.756 162.896 39.236L162.752 41H151.232L151.124 39.776C151.796 39.392 152.684 39.008 153.788 38.624V26.528L151.088 26.204L150.836 24.476C152.9 23.684 155.036 23.264 157.244 23.216L159.008 24.8V27.752L162.608 23.72ZM173.648 20.912C172.136 20.24 170.876 19.268 169.868 17.996C170.66 16.412 171.692 15.14 172.964 14.18C174.404 14.948 175.616 16.004 176.6 17.348C175.928 18.788 174.944 19.976 173.648 20.912ZM175.988 38.156C177.116 38.516 177.992 38.876 178.616 39.236L178.472 41H168.14L168.032 39.776C168.752 39.368 169.664 38.972 170.768 38.588V26.528L168.068 26.204L167.816 24.476C169.88 23.684 172.016 23.264 174.224 23.216L175.988 24.8V38.156ZM188.667 37.508C189.339 37.508 190.347 37.352 191.691 37.04L192.087 38.804L186.543 41.576C185.511 41.624 184.527 41.276 183.591 40.532C182.655 39.788 182.175 38.948 182.151 38.012V27.608L179.631 27.644L179.487 25.772C180.399 25.124 181.371 24.548 182.403 24.044L184.203 19.364H186.651L187.263 24.044H192.195L192.267 25.592L190.503 27.68H187.371V35.852C187.371 36.476 187.467 36.908 187.659 37.148C187.851 37.388 188.187 37.508 188.667 37.508ZM207.633 32.432L198.453 32.324C198.549 34.1 199.101 35.48 200.109 36.464C201.117 37.448 202.401 37.94 203.961 37.94C205.257 37.94 206.793 37.508 208.569 36.644L209.325 38.552L203.673 41.468L202.521 41.54C199.881 41.54 197.709 40.712 196.005 39.056C194.301 37.376 193.449 35.252 193.449 32.684C193.449 29.996 194.313 27.74 196.041 25.916C197.769 24.068 199.869 23.144 202.341 23.144C204.501 23.144 206.265 23.816 207.633 25.16C209.025 26.48 209.721 28.208 209.721 30.344L207.633 32.432ZM201.081 25.88C199.833 26.6 199.029 27.92 198.669 29.84L204.897 29.516C204.729 28.484 204.285 27.62 203.565 26.924C202.869 26.228 202.041 25.88 201.081 25.88Z" fill="#1E252C"/>
<path d="M3.84869 37.6693C2.87571 38.6423 1.55622 38.4411 0.755926 37.7392C0.00516217 37.081 -0.36511 35.9116 0.500081 34.7833C0.505235 34.7766 0.510825 34.7702 0.516764 34.7642L11.0697 24.1662C11.0699 24.1662 11.0699 24.1659 11.07 24.1659C11.1069 24.1289 11.157 24.1081 11.2094 24.1081C11.2616 24.1081 11.3119 24.1289 11.349 24.1659L13.0816 25.8984C13.1485 25.9653 13.1585 26.0703 13.1054 26.1483C11.5942 28.3819 9.8997 30.4423 8.06904 32.2731C6.85847 33.4836 5.56064 34.6215 4.2097 35.6563C4.36431 36.2985 4.43489 37.0042 3.97805 37.5301C3.93569 37.5789 3.89245 37.6255 3.84869 37.6693ZM0.805365 35.0331C0.0571343 36.0191 0.450205 36.9465 1.01596 37.4427C1.70934 38.0504 2.87126 38.2033 3.68011 37.2716C4.04767 36.8486 3.94486 36.2034 3.79602 35.628C3.77602 35.5512 3.80405 35.4693 3.86738 35.4215C5.24147 34.3763 6.5614 33.223 7.79013 31.9944C9.5662 30.2181 11.2132 28.2228 12.6872 26.0622L11.2098 24.5846L0.805365 35.0331Z" fill="black"/>
<path d="M17.3629 25.9802L16.5581 26.7849C16.4835 26.8595 16.3636 26.8623 16.2857 26.7914C14.4904 25.1569 13.6626 25.588 13.1961 26.0543C13.16 26.0903 13.1248 26.1284 13.0904 26.1678C13.0546 26.2087 13.0032 26.2336 12.9485 26.2354C12.8941 26.2374 12.8412 26.2166 12.8024 26.1781L11.0677 24.4475C11.0306 24.4103 11.0098 24.3603 11.0098 24.3079C11.0098 24.2555 11.0306 24.2054 11.0676 24.1684L13.3095 21.9266C13.3864 21.8495 13.5113 21.8495 13.5883 21.9266L17.3631 25.7012C17.44 25.7784 17.44 25.9031 17.3629 25.9802ZM16.411 26.3744L16.9443 25.8408L13.4485 22.345L11.4858 24.3078L12.9374 25.7555C13.817 24.8962 14.9547 25.0986 16.411 26.3744Z" fill="black"/>
<path d="M17.4589 25.8841C17.4586 25.8847 17.4587 25.8847 17.4583 25.8849L17.3628 25.9804C17.2857 26.0572 17.1609 26.0572 17.0839 25.9802L13.3063 22.2025C13.232 22.1283 13.229 22.0086 13.2994 21.9308C15.2095 19.8179 17.1222 17.8021 18.9848 15.9398C23.125 11.7995 27.1762 8.23426 31.3698 5.04035C31.4369 4.98925 31.5291 4.98646 31.5991 5.03328C31.6691 5.08018 31.7016 5.16639 31.6801 5.2478C29.6226 12.9913 22.9994 20.3439 17.4589 25.8841ZM13.7179 22.0563L17.2235 25.5618C22.584 20.1978 28.9467 13.1393 31.1397 5.71337C27.1268 8.8043 23.2364 12.2458 19.2635 16.2188C17.4467 18.0356 15.5816 19.9988 13.7179 22.0563Z" fill="black"/>
<path d="M2.47783 36.1024C2.19692 36.3834 1.73965 36.3834 1.45873 36.1024C1.17782 35.8215 1.17782 35.3643 1.45873 35.0833C1.73965 34.8023 2.19692 34.8023 2.47783 35.0833C2.75892 35.3643 2.75892 35.8215 2.47783 36.1024ZM1.73764 35.3621C1.61054 35.4893 1.61054 35.6962 1.73781 35.8236C1.86499 35.9506 2.07175 35.9506 2.19893 35.8236C2.32611 35.6962 2.32611 35.4895 2.19893 35.3624C2.07166 35.235 1.86473 35.235 1.73764 35.3621Z" fill="black"/>
<path d="M6.30205 32.2783C6.02105 32.5593 5.56387 32.5593 5.28295 32.2783C5.00204 31.9973 5.00204 31.5401 5.28295 31.2592C5.56387 30.9782 6.02105 30.9782 6.30205 31.2593C6.58296 31.5402 6.58296 31.9973 6.30205 32.2783ZM5.56177 31.5379C5.43468 31.6653 5.43468 31.872 5.56177 31.9994C5.68912 32.1264 5.89588 32.1264 6.02297 31.9994C6.15024 31.8723 6.15024 31.6653 6.02297 31.5382C5.89588 31.4108 5.68886 31.4108 5.56177 31.5379Z" fill="black"/>
<path d="M10.2609 28.3195C9.98003 28.6005 9.52294 28.6005 9.24194 28.3195C8.96102 28.0386 8.96102 27.5815 9.24194 27.3006C9.52285 27.0194 9.97995 27.0196 10.2609 27.3006C10.5419 27.5815 10.5419 28.0386 10.2609 28.3195ZM9.52093 27.5795C9.39375 27.7067 9.39375 27.9136 9.52093 28.0406C9.64793 28.1678 9.85495 28.1678 9.98204 28.0406C10.1091 27.9136 10.1091 27.7067 9.98204 27.5795C9.85486 27.4524 9.64793 27.4524 9.52093 27.5795Z" fill="black"/>
<path d="M17.6214 23.9812C17.244 24.3585 16.864 24.7311 16.4794 25.1005C16.427 25.1506 16.3436 25.1491 16.2933 25.0967C16.2432 25.0444 16.2463 24.9639 16.2972 24.9108C22.2392 19.202 27.3118 12.5487 31.3738 5.13397C31.4087 5.07055 31.4888 5.04706 31.5524 5.08191C31.6159 5.11667 31.6394 5.1966 31.6045 5.26036C27.7925 12.2186 23.0925 18.5101 17.6214 23.9812Z" fill="black"/>
</svg>
